<?xml version="1.0" encoding="UTF-8" standalone="no"?>
<svg width="2021px" height="405px" viewBox="0 0 2021 405" version="1.1" xmlns="http://www.w3.org/2000/svg" xmlns:xlink="http://www.w3.org/1999/xlink">
    <!-- Generator: Sketch 43.2 (39069) - http://www.bohemiancoding.com/sketch -->
    <title>CharityJob Logo_Dark Blue</title>
    <desc>Created with Sketch.</desc>
    <defs>
        <polygon id="path-1" points="0.295662651 4.03465802 0.295662651 408.704337 329.387904 408.704337 329.387904 4.03465802 0.295662651 4.03465802"></polygon>
    </defs>
    <g id="Symbols" stroke="none" stroke-width="1" fill="none" fill-rule="evenodd">
        <g id="CharityJob-Logo_Dark-Blue" transform="translate(0.000000, -4.000000)">
            <path d="M617.003602,313.727639 C600.845639,313.727639 585.554952,310.879422 571.131542,305.192843 C556.722916,299.506265 544.112904,291.414964 533.306434,280.909084 C522.490108,270.408133 513.915892,257.714349 507.593639,242.827735 C501.251675,227.955904 498.093012,211.21647 498.093012,192.614361 C498.093012,174.017181 501.30588,157.22847 507.751325,142.233446 C514.191843,127.253205 522.87447,114.500289 533.794277,103.999337 C544.709157,93.4983855 557.324096,85.4021566 571.634169,79.7106506 C585.934386,74.029 600.845639,71.1807831 616.348217,71.1807831 C632.289361,71.1807831 646.426964,73.4228916 658.761024,77.9120361 C671.109867,82.4011807 681.586181,88.309506 690.209675,95.6271566 C698.843024,102.964518 705.830518,111.228289 711.177084,120.408614 C716.523651,129.598795 720.406687,138.902313 722.81141,148.309313 L680.216277,161.761964 C678.910434,156.297133 676.727458,150.728819 673.667349,145.032386 C670.607241,139.34088 666.512313,134.304759 661.392422,129.93388 C656.247892,125.553145 649.974916,121.94606 642.553783,119.097843 C635.127723,116.254554 626.385964,114.835373 616.348217,114.835373 C607.606458,114.835373 598.987892,116.422096 590.472807,119.585687 C581.947867,122.768988 574.30006,127.529157 567.539241,133.866193 C560.763639,140.213084 555.308663,148.309313 551.154602,158.15488 C547.010398,168.000446 544.935831,179.491867 544.935831,192.614361 C544.935831,205.096253 546.951265,216.085048 550.996916,225.600458 C555.037639,235.125723 560.384205,243.11847 567.051398,249.558988 C573.703807,256.024145 581.351614,260.942 589.975108,264.337193 C598.60353,267.727458 607.606458,269.417663 617.003602,269.417663 C626.82453,269.417663 635.507157,267.944277 643.046554,264.987651 C650.581024,262.035952 656.96241,258.261325 662.200566,253.668699 C667.453506,249.071145 671.70612,243.985747 674.983048,238.397723 C678.255048,232.82941 680.659771,227.305446 682.197217,221.825831 L724.442482,234.623096 C722.264434,243.606313 718.489807,252.737361 713.143241,262.035952 C707.796675,271.33947 700.700771,279.815133 691.850602,287.472795 C683.005361,295.130458 672.420639,301.413289 660.086578,306.345928 C647.737735,311.263783 633.373458,313.727639 617.003602,313.727639" id="Fill-1" fill="#002A6F"></path>
            <path d="M779.480084,308.804855 L735.914193,308.804855 L735.914193,71.1807831 L779.480084,71.1807831 L779.480084,160.786277 C784.723169,154.434458 791.375578,149.900964 799.461952,147.161157 C807.533542,144.421349 815.408024,143.051446 823.050904,143.051446 C833.315325,143.051446 842.209843,144.756434 849.749241,148.151627 C857.283711,151.546819 863.502482,156.080313 868.420337,161.771819 C873.333265,167.463325 876.994554,174.238928 879.394349,182.108482 C881.789217,189.992819 882.991578,198.315723 882.991578,207.057482 L882.991578,308.804855 L839.425687,308.804855 L839.425687,214.606735 C839.425687,205.411627 837.080096,197.758892 832.383988,191.633747 C827.682952,185.518458 820.099205,182.443566 809.617964,182.443566 C800.437639,182.443566 793.233325,185.454398 787.995169,191.471133 C782.757012,197.492795 779.908795,204.982916 779.480084,213.951349 L779.480084,308.804855" id="Fill-2" fill="#002A6F"></path>
            <path d="M897.735289,264.825036 C897.735289,257.60594 898.986928,251.204843 901.50006,245.631602 C904.013193,240.048506 907.452735,235.175 911.823614,231.02094 C916.194494,226.861952 921.265108,223.589952 927.050241,221.170446 C932.840301,218.765723 939.12806,217.016386 945.88888,215.917506 L985.527386,210.014108 C990.115084,209.358723 993.283602,207.988819 995.03294,205.904398 C996.772422,203.834759 997.649554,201.370904 997.649554,198.522687 C997.649554,192.841036 995.412373,187.913325 990.938012,183.759265 C986.458723,179.600277 979.638771,177.520783 970.453518,177.520783 C960.844482,177.520783 953.477554,180.152181 948.34288,185.400193 C943.213133,190.653133 940.315639,196.773349 939.660253,203.775627 L901.012217,195.570988 C901.662675,189.224096 903.628831,182.88706 906.905759,176.530313 C910.192542,170.193277 914.657048,164.501771 920.338699,159.465651 C926.015422,154.439386 933.007843,150.334602 941.306108,147.166084 C949.604373,143.987711 959.21341,142.405916 970.133217,142.405916 C982.792506,142.405916 993.603904,144.09612 1002.55755,147.486386 C1011.5112,150.881578 1018.77465,155.370723 1024.34789,160.943964 C1029.91128,166.52706 1033.95693,173.041494 1036.47006,180.472482 C1038.97334,187.913325 1040.23483,195.689253 1040.23483,203.775627 L1040.23483,283.210325 C1040.23483,287.576277 1040.45165,292.237892 1040.88529,297.155747 C1041.32878,302.083458 1041.75749,305.966494 1042.19606,308.809783 L1002.23725,308.809783 C1001.79376,306.62188 1001.41433,303.60612 1001.09402,299.787145 C1000.75894,295.953386 1000.59633,292.508916 1000.59633,289.434024 C996.447193,295.795699 990.494518,301.36894 982.743229,306.178386 C974.99194,310.987831 965.106952,313.397482 953.093193,313.397482 C944.578108,313.397482 936.876096,312.022651 930.006867,309.302554 C923.122855,306.562747 917.273663,302.955663 912.479,298.46159 C907.669554,293.982301 904.013193,288.842699 901.50006,283.042783 C898.986928,277.242867 897.735289,271.167 897.735289,264.825036 M962.273518,280.914012 C966.856289,280.914012 971.276446,280.302976 975.538916,279.100614 C979.79153,277.903181 983.566157,275.818759 986.843084,272.862133 C990.115084,269.910434 992.731699,266.08653 994.697855,261.380566 C996.664012,256.67953 997.649554,250.717 997.649554,243.488048 L997.649554,236.268952 L961.287976,241.856976 C955.606325,242.724253 950.856012,244.749542 947.032108,247.927916 C943.213133,251.096434 941.306108,255.86153 941.306108,262.203494 C941.306108,267.017867 943.04559,271.33947 946.544265,275.158446 C950.033084,278.992205 955.271241,280.914012 962.273518,280.914012" id="Fill-3" fill="#002A6F"></path>
            <path d="M1156.19372,190.653133 C1151.82284,189.780928 1147.45196,189.342361 1143.09587,189.342361 C1137.40436,189.342361 1132.0578,190.101229 1127.04631,191.638675 C1122.00527,193.161337 1117.64917,195.689253 1113.93367,199.187928 C1110.21818,202.686602 1107.2172,207.333434 1104.93075,213.133349 C1102.63443,218.928337 1101.4912,226.206566 1101.4912,234.958181 L1101.4912,308.809783 L1057.92039,308.809783 L1057.92039,147.333627 L1100.18043,147.333627 L1100.18043,171.287229 C1102.5753,166.034289 1105.69454,161.712687 1109.51352,158.322422 C1113.32757,154.927229 1117.37814,152.354964 1121.63569,150.605627 C1125.8883,148.856289 1130.1557,147.649 1134.41817,146.998542 C1138.66586,146.343157 1142.54889,146.008072 1146.03771,146.008072 C1147.78705,146.008072 1149.47725,146.067205 1151.12311,146.175614 C1152.75418,146.29388 1154.44439,146.446639 1156.19372,146.663458 L1156.19372,190.653133" id="Fill-4" fill="#002A6F"></path>
            <path d="M1168.63619,94.4839277 C1168.63619,86.8262651 1171.25773,80.3758916 1176.49589,75.1229518 C1181.73405,69.870012 1188.07601,67.2386145 1195.50207,67.2386145 C1203.14495,67.2386145 1209.52634,69.870012 1214.66101,75.1229518 C1219.79076,80.3758916 1222.36795,86.8262651 1222.36795,94.4839277 C1222.36795,101.698096 1219.79076,107.936578 1214.66101,113.189518 C1209.52634,118.442458 1203.14495,121.073855 1195.50207,121.073855 C1188.07601,121.073855 1181.73405,118.442458 1176.49589,113.189518 C1171.25773,107.936578 1168.63619,101.698096 1168.63619,94.4839277 L1168.63619,94.4839277 Z M1173.87928,308.804855 L1217.44517,308.804855 L1217.44517,147.328699 L1173.87928,147.328699 L1173.87928,308.804855 Z" id="Fill-5" fill="#002A6F"></path>
            <path d="M1304.58188,147.328699 L1337.021,147.328699 L1337.021,186.050651 L1304.58188,186.050651 L1304.58188,253.673627 C1304.58188,260.675904 1306.16367,265.534627 1309.33219,268.274434 C1312.50564,271.009313 1317.24117,272.369361 1323.58806,272.369361 C1326.2096,272.369361 1328.82622,272.260952 1331.44776,272.044133 C1334.06437,271.832241 1335.92212,271.502084 1337.021,271.05859 L1337.021,307.159 C1335.05484,308.045988 1332.03908,308.913265 1328.00329,309.790398 C1323.97242,310.662602 1318.77861,311.101169 1312.44158,311.101169 C1296.72218,311.101169 1284.26986,306.730289 1275.09939,297.968819 C1265.92892,289.22706 1261.35107,276.961988 1261.35107,261.213024 L1261.35107,186.050651 L1232.18888,186.050651 L1232.18888,147.328699 L1240.37873,147.328699 C1248.88889,147.328699 1255.1668,144.864843 1259.21737,139.946988 C1263.24824,135.014349 1265.27846,128.94341 1265.27846,121.724313 L1265.27846,99.0765542 L1304.58188,99.0765542 L1304.58188,147.328699" id="Fill-6" fill="#002A6F"></path>
            <polyline id="Fill-7" fill="#002A6F" points="1380.57704 372.480735 1418.57461 288.458337 1350.11393 147.333627 1398.92783 147.333627 1441.84327 241.852048 1481.47192 147.333627 1527.98951 147.333627 1426.76447 372.480735 1380.57704 372.480735"></polyline>
            <path d="M1505.06087,222.486145 L1548.62676,214.601807 L1548.62676,235.938795 C1548.83865,247.98212 1551.94804,256.778084 1557.95984,262.361181 C1563.96672,267.949205 1571.56033,270.738289 1580.7308,270.738289 C1590.3349,270.738289 1597.86445,267.673253 1603.32928,261.543181 C1608.78425,255.422964 1611.52406,247.218325 1611.52406,236.929265 L1611.52406,76.1035663 L1656.72102,76.1035663 L1656.72102,236.929265 C1656.72102,247.435145 1654.92734,257.32506 1651.31533,266.628578 C1647.72302,275.937024 1642.58835,284.08253 1635.92116,291.084807 C1629.26382,298.087084 1621.30064,303.611048 1612.0119,307.661627 C1602.72317,311.707277 1592.40947,313.732566 1581.0511,313.732566 C1569.4759,313.732566 1559.05872,311.924096 1549.76999,308.312084 C1540.48125,304.705 1532.51807,299.565398 1525.85581,292.883422 C1519.19354,286.216229 1514.05887,278.223482 1510.46164,268.924892 C1506.85455,259.626301 1505.06087,249.292892 1505.06087,237.904952 L1505.06087,222.486145" id="Fill-8" fill="#002A6F"></path>
            <path d="M1755.32945,142.400988 C1767.32842,142.400988 1778.52418,144.534687 1788.90687,148.807012 C1799.2797,153.07441 1808.23335,158.977807 1815.76782,166.52706 C1823.29736,174.076313 1829.20076,183.10388 1833.45337,193.604831 C1837.71584,204.105783 1839.84461,215.597205 1839.84461,228.064313 C1839.84461,240.546205 1837.71584,251.973566 1833.45337,262.356253 C1829.20076,272.768506 1823.29736,281.781289 1815.76782,289.434024 C1808.23335,297.10647 1799.2797,303.059145 1788.90687,307.33147 C1778.52418,311.59394 1767.32842,313.727639 1755.32945,313.727639 C1743.31076,313.727639 1732.11993,311.59394 1721.7471,307.33147 C1711.37919,303.059145 1702.42061,297.10647 1694.88614,289.434024 C1687.36153,281.781289 1681.46799,272.768506 1677.20059,262.356253 C1672.93812,251.973566 1670.80442,240.546205 1670.80442,228.064313 C1670.80442,215.597205 1672.93812,204.105783 1677.20059,193.604831 C1681.46799,183.10388 1687.36153,174.076313 1694.88614,166.52706 C1702.42061,158.977807 1711.37919,153.07441 1721.7471,148.807012 C1732.11993,144.534687 1743.31076,142.400988 1755.32945,142.400988 M1755.32945,274.020145 C1760.5676,274.020145 1765.69735,273.024747 1770.72361,271.063518 C1775.74495,269.087506 1780.10598,266.19494 1783.82147,262.356253 C1787.53696,258.537277 1790.53794,253.772181 1792.83425,248.095458 C1795.13549,242.403952 1796.2738,235.736759 1796.2738,228.064313 C1796.2738,220.406651 1795.13549,213.739458 1792.83425,208.047952 C1790.53794,202.356446 1787.53696,197.591349 1783.82147,193.772373 C1780.10598,189.938614 1775.74495,187.046048 1770.72361,185.065108 C1765.69735,183.10388 1760.5676,182.11341 1755.32945,182.11341 C1750.08636,182.11341 1744.95661,183.10388 1739.93035,185.065108 C1734.90408,187.046048 1730.53813,189.938614 1726.83249,193.772373 C1723.117,197.591349 1720.11602,202.356446 1717.81478,208.047952 C1715.53325,213.739458 1714.37524,220.406651 1714.37524,228.064313 C1714.37524,235.736759 1715.53325,242.403952 1717.81478,248.095458 C1720.11602,253.772181 1723.117,258.537277 1726.83249,262.356253 C1730.53813,266.19494 1734.90408,269.087506 1739.93035,271.063518 C1744.95661,273.024747 1750.08636,274.020145 1755.32945,274.020145" id="Fill-9" fill="#002A6F"></path>
            <path d="M1854.5834,308.804855 L1854.5834,71.1807831 L1897.49883,71.1807831 L1897.49883,165.048747 C1901.21433,159.367096 1907.27541,154.271843 1915.68208,149.792554 C1924.08876,145.30341 1934.29405,143.051446 1946.30781,143.051446 C1958.09489,143.051446 1968.58599,145.195 1977.75153,149.462398 C1986.92693,153.71994 1994.73735,159.628265 2001.17787,167.177518 C2007.61839,174.726771 2012.47711,183.645928 2015.74911,193.934988 C2019.02604,204.21912 2020.66696,215.380386 2020.66696,227.408928 C2020.66696,239.669072 2018.87328,250.99788 2015.26619,261.375639 C2011.65418,271.773108 2006.52443,280.795747 1999.8671,288.45341 C1993.1999,296.125855 1985.17266,302.07853 1975.7903,306.341 C1966.39808,310.613325 1956.02033,312.747024 1944.66688,312.747024 C1933.53025,312.747024 1923.87194,310.55912 1915.68208,306.173458 C1907.49223,301.802578 1901.21433,296.125855 1896.84837,289.108795 L1896.84837,308.804855 L1854.5834,308.804855 Z M1977.10107,227.739084 C1977.10107,212.85247 1973.22296,201.533518 1965.46675,193.767446 C1957.71546,186.006301 1948.27396,182.108482 1937.13734,182.108482 C1931.67251,182.108482 1926.49348,183.098952 1921.57563,185.074964 C1916.65777,187.04112 1912.41008,189.943542 1908.79807,193.767446 C1905.20577,197.601205 1902.29842,202.351518 1900.12037,208.043024 C1897.9374,213.739458 1896.84837,220.298241 1896.84837,227.739084 C1896.84837,234.953253 1897.9374,241.408554 1900.12037,247.10006 C1902.29842,252.791566 1905.20577,257.601012 1908.79807,261.543181 C1912.41008,265.485349 1916.65777,268.486325 1921.57563,270.570747 C1926.49348,272.655169 1931.67251,273.689988 1937.13734,273.689988 C1948.27396,273.689988 1957.71546,269.747819 1965.46675,261.86841 C1973.22296,253.998855 1977.10107,242.625699 1977.10107,227.739084 L1977.10107,227.739084 Z" id="Fill-10" fill="#002A6F"></path>
            <path d="M352.66641,311.101169 L301.807506,261.493904 C301.418217,261.109542 301.014145,260.804024 300.619928,260.459084 C309.337048,244.655916 314.328819,226.507157 314.328819,207.220096 C314.328819,146.224892 264.721554,96.6225542 203.726349,96.6225542 C142.736072,96.6225542 93.1189518,146.224892 93.1189518,207.220096 C93.1189518,268.210373 142.736072,317.827494 203.726349,317.827494 C223.974313,317.827494 242.901651,312.264108 259.24194,302.728988 C259.443976,302.921169 259.58688,303.108422 259.788916,303.310458 L310.657675,352.917723 C322.301855,364.167687 341.022229,364.167687 352.66641,352.917723 C364.576687,341.416446 364.561904,322.59259 352.66641,311.101169 M203.726349,272.280663 C167.852614,272.280663 138.665783,243.093831 138.665783,207.220096 C138.665783,171.341434 167.852614,142.154602 203.726349,142.154602 C239.605012,142.154602 268.77706,171.341434 268.77706,207.220096 C268.77706,243.093831 239.605012,272.280663 203.726349,272.280663" id="Fill-11" fill="#002A6F"></path>
            <path d="M401.554229,203.327205 C401.52959,201.469458 401.485241,199.626494 401.40147,197.793386 C401.33741,196.423482 401.283205,195.078217 401.184651,193.708313 C401.066386,191.717518 400.908699,189.731651 400.721446,187.716217 C400.613036,186.528639 400.494771,185.336133 400.366651,184.143627 C400.125193,182.014855 399.864024,179.881157 399.543723,177.737602 C399.400819,176.702783 399.252988,175.667964 399.07559,174.633145 C398.720795,172.371325 398.326578,170.119361 397.888012,167.867398 L397.341036,165.152229 C396.853193,162.806639 396.316072,160.461048 395.734602,158.125313 L395.138349,155.755084 C394.507602,153.340506 393.827578,150.935783 393.098277,148.516277 L392.457675,146.412145 C391.69388,143.958145 390.870952,141.514 390.003675,139.074783 L389.299012,137.12341 C388.407096,134.694048 387.465904,132.264687 386.465578,129.845181 L385.672217,127.918446 C384.657108,125.538361 383.597651,123.168133 382.503699,120.832398 L381.528012,118.797253 C380.429133,116.520651 379.276048,114.248976 378.083542,111.997012 L376.891036,109.769687 C375.728096,107.640916 374.510952,105.522 373.274096,103.41294 L372.29841,101.806506 C367.691,94.3952289 359.688398,89.98 350.897361,89.98 C346.354012,89.98 341.874723,91.2316386 337.967048,93.5772289 C326.071554,100.732265 322.203301,116.249627 329.333699,128.14512 L329.703277,128.785723 C330.743024,130.53506 331.753205,132.299181 332.719036,134.08794 L333.394133,135.334651 C334.350108,137.12341 335.266663,138.93188 336.143795,140.774843 L336.754831,142.041265 C337.612253,143.85959 338.435181,145.697627 339.203904,147.530735 L339.765663,148.876 C340.529458,150.709108 341.243976,152.557 341.924,154.414747 L342.446337,155.829 C343.101723,157.676892 343.717687,159.534639 344.289301,161.367747 L344.757434,162.900265 C345.314265,164.748157 345.826747,166.59112 346.31459,168.429157 L346.733446,170.070084 C347.172012,171.893337 347.600723,173.726446 347.99494,175.594048 L348.33988,177.343386 C348.684819,179.132145 349.019904,180.930759 349.290928,182.71459 L349.591518,184.715241 C349.842831,186.454723 350.069506,188.184349 350.256759,189.933687 L350.483434,192.136373 C350.636193,193.811795 350.769241,195.492145 350.862867,197.133072 L350.995916,199.636349 C351.055048,201.232928 351.114181,202.829506 351.124036,204.421157 L351.138819,207.185602 C351.124036,208.69841 351.099398,210.196434 351.040265,211.68953 C351.005771,212.724349 350.946639,213.749313 350.887506,214.784133 C350.81359,216.173747 350.719964,217.573217 350.601699,218.977614 C350.508072,220.120843 350.38488,221.264072 350.266614,222.417157 C350.123711,223.678651 349.980807,224.95 349.818193,226.211494 C349.650651,227.487771 349.45847,228.764048 349.246578,230.060036 C349.064253,231.19341 348.877,232.336639 348.674964,233.479867 C348.408867,234.89412 348.137843,236.298518 347.837253,237.658566 L347.497241,239.432542 C346.043566,246.025819 347.231145,252.801422 350.853012,258.497855 C354.47488,264.174578 360.067831,268.101964 366.626614,269.570422 C368.449867,269.974494 370.322398,270.17653 372.165361,270.17653 C376.930458,270.17653 381.597,268.806627 385.672217,266.214651 C391.156759,262.711048 395.02994,257.246217 396.552602,250.909181 L397.193205,247.991976 C397.592349,246.10959 397.971783,244.232133 398.30194,242.310325 C398.577892,240.896072 398.804566,239.481819 399.031241,238.077422 C399.326904,236.219675 399.602855,234.361928 399.839386,232.514036 C400.041422,231.025867 400.208964,229.547554 400.376506,228.04953 C400.563759,226.275554 400.746084,224.501578 400.888988,222.737458 C401.017108,221.150735 401.125518,219.56894 401.219145,217.972361 C401.317699,216.321578 401.40147,214.665867 401.460602,213.010157 C401.519735,211.295313 401.554229,209.58047 401.564084,207.890265 C401.578867,206.367602 401.578867,204.840012 401.554229,203.327205" id="Fill-12" fill="#F4C325"></path>
            <g id="Group-16">
                <mask id="mask-2" fill="white">
                    <use xlink:href="#path-1"></use>
                </mask>
                <g id="Clip-14"></g>
                <path d="M303.82294,37.8398916 C289.724759,37.8398916 278.257976,49.3066747 278.257976,63.395 C278.257976,77.4931807 289.724759,88.9599639 303.82294,88.9599639 C317.92112,88.9599639 329.387904,77.4931807 329.387904,63.395 C329.387904,49.3066747 317.92112,37.8398916 303.82294,37.8398916" id="Fill-13" fill="#F4C325" mask="url(#mask-2)"></path>
                <path d="M247.223253,9.03742169 C242.60106,7.98781928 237.885241,7.09590361 233.233482,6.37153012 C232.149386,6.20398795 231.075145,6.11036145 229.995976,5.96253012 C229.872783,5.94281928 229.759446,5.89354217 229.636253,5.87875904 C229.133627,5.80484337 228.616217,5.78513253 228.108663,5.72107229 C224.309398,5.23322892 220.524916,4.84886747 216.735506,4.57291566 C216.64188,4.56306024 216.553181,4.53349398 216.459554,4.52363855 C216.346217,4.51871084 216.23288,4.51871084 216.114614,4.51378313 C215.897795,4.499 215.685904,4.45957831 215.469084,4.44479518 C215.089651,4.42508434 214.720072,4.43001205 214.350494,4.40537349 C211.290386,4.21812048 208.240133,4.10971084 205.194807,4.06043373 C204.416229,4.05057831 203.642578,4.03579518 202.864,4.03579518 C199.966506,4.02593976 197.07394,4.08014458 194.181373,4.19840964 C193.102205,4.23783133 192.018108,4.28218072 190.93894,4.34131325 C188.494795,4.47928916 186.055578,4.66654217 183.621289,4.89814458 C182.24153,5.02626506 180.861771,5.14945783 179.482012,5.30221687 C179.171566,5.33671084 178.86112,5.38106024 178.545747,5.42048193 C176.79641,5.63237349 175.047072,5.87383133 173.297735,6.13007229 C171.686373,6.3616747 170.075012,6.58342169 168.468578,6.85444578 C167.714639,6.98256627 166.970554,7.1353253 166.216614,7.2733012 C165.132518,7.47533735 164.053349,7.69708434 162.974181,7.91390361 C161.200205,8.2686988 159.421301,8.59392771 157.652253,8.998 C156.464675,9.2690241 155.296807,9.57946988 154.119084,9.87020482 C153.724867,9.96875904 153.335578,10.0771687 152.946289,10.1757229 C152.404241,10.3136988 151.862193,10.4615301 151.320145,10.6044337 C149.856614,10.9887952 148.383229,11.3337349 146.919699,11.7525904 C145.451241,12.1763735 143.992639,12.6494337 142.524181,13.1077108 L140.577735,13.6891807 C139.730169,13.9700602 138.882602,14.2657229 138.035036,14.5564578 C137.428928,14.7634217 136.822819,14.9408193 136.216711,15.1527108 C134.950289,15.5962048 133.688795,16.0741928 132.427301,16.5423253 C131.742349,16.7887108 131.05247,17.0203133 130.372446,17.2765542 L129.850108,17.4884458 C129.248928,17.7200482 128.657602,17.9812169 128.066277,18.2374578 C127.972651,18.2768795 127.874096,18.3113735 127.775542,18.3507952 C127.125084,18.6119639 126.464771,18.8238554 125.814313,19.0948795 L123.828446,19.8931687 C122.788699,20.3317349 121.763735,20.7949398 120.743699,21.2630723 L119.684241,21.7361325 C117.762434,22.5935542 115.850482,23.4509759 113.968096,24.3675301 L113.46547,24.6188434 C113.361988,24.6681205 113.263434,24.7321807 113.159952,24.7814578 L111.780193,25.4319157 C110.779867,25.9443976 109.789398,26.4716627 108.803855,27.0087831 L107.778892,27.5508313 C105.921145,28.5314458 104.063398,29.5071325 102.245072,30.5419518 L101.767084,30.827759 C100.978651,31.2811084 100.214855,31.7689518 99.455988,32.2567952 C98.9977108,32.5475301 98.5394337,32.8333373 98.0762289,33.1191446 C97.4405542,33.4936506 96.7950241,33.8583012 96.1642771,34.2426627 L94.2326145,35.4598072 L91.6702048,37.1401566 L91.3646867,37.3372651 C91.3252651,37.3619036 91.2858434,37.3914699 91.2464217,37.4161084 L87.7674578,39.6976386 L85.8160843,41.0675422 C84.6876386,41.8658313 83.5690482,42.7035422 82.4455301,43.5215422 C82.0956627,43.7728554 81.7359398,44.019241 81.3860723,44.2754819 L80.9425783,44.615494 C80.5237229,44.9259398 80.0999398,45.2166747 79.6810843,45.5320482 L78.2520482,46.6506386 C77.3552048,47.3454458 76.4879277,48.0796747 75.6058675,48.7843373 L73.4968072,50.4449759 L72.7576506,51.0707952 C72.5112651,51.277759 72.2500964,51.465012 72.0037108,51.6769036 L70.9393253,52.5836024 C69.5792771,53.7563976 68.1847349,54.9833976 66.7458434,56.2843133 C66.4846747,56.5159157 66.2136506,56.7327349 65.9574096,56.9741928 L64.7944699,58.0582892 C64.6269277,58.2159759 64.4790964,58.3391687 64.3115542,58.5017831 L63.8926988,58.8910723 C62.4735181,60.2264819 61.0494096,61.6111687 59.5957349,63.0599157 C59.3542771,63.3013735 59.0980361,63.5280482 58.8565783,63.769506 L57.8710361,64.7698313 C55.9196627,66.7606265 53.9978554,68.7859157 51.7853133,71.234988 L51.4058795,71.6636988 C50.9131084,72.2156024 50.4203373,72.7921446 49.932494,73.3489759 C49.898,73.3933253 49.8585783,73.4278193 49.8240843,73.467241 L49.6171205,73.7136265 C48.5576627,74.9258434 47.4834217,76.2021205 46.3746867,77.5424578 C46.2810602,77.6557952 46.182506,77.7691325 46.0888795,77.8873976 C45.9114819,78.1042169 45.7439398,78.2963976 45.5616145,78.5230723 L45.2265301,78.9271446 C45.0097108,79.193241 44.802747,79.4741205 44.5908554,79.7451446 C44.1473614,80.2970482 43.728506,80.7996747 43.2653012,81.3860723 L42.9055783,81.8394217 C41.9643855,83.0565663 41.0231928,84.2934217 40.0672169,85.5746265 L39.8208313,85.8949277 L39.4364699,86.4369759 C38.8057229,87.2894699 38.1799036,88.1321084 37.5245181,89.0535904 L37.2140723,89.4970843 C36.5783976,90.4037831 35.9525783,91.3351205 35.3316867,92.2615301 L34.2328072,93.8236145 L33.572494,94.8732169 L32.2715783,96.7950241 L30.0886024,100.37747 L28.9946506,102.112024 L28.3540482,103.230614 C28.3491205,103.230614 28.3491205,103.235542 28.3491205,103.235542 L27.2256024,105.083434 L26.0330964,107.261482 C25.6930843,107.86759 25.3727831,108.478627 25.0376988,109.084735 C25.017988,109.119229 24.9982771,109.148795 24.983494,109.183289 L24.0275181,110.912916 C23.9733133,111.016398 23.9240361,111.11988 23.8698313,111.228289 C23.8353373,111.297277 23.7959157,111.361337 23.7614217,111.430325 L22.5344217,113.692145 L21.9726627,114.850157 C21.5340964,115.717434 21.1250964,116.609349 20.6963855,117.486482 C20.2479639,118.403036 19.8044699,119.309735 19.375759,120.221361 C19.2525663,120.48253 19.1195181,120.743699 18.9963253,121.004867 L18.1536867,122.788699 C17.8186024,123.527855 17.5327952,124.267012 17.2075663,125.006169 C16.9020482,125.696048 16.5571084,126.395783 16.2663735,127.085663 L15.1921325,129.593867 C14.9999518,130.081711 14.8176265,130.57941 14.6254458,131.067253 C14.5564578,131.239723 14.4923976,131.412193 14.4283373,131.579735 C14.0784699,132.476578 13.7286024,133.363566 13.3836627,134.275193 C12.8169759,135.738723 12.2798554,137.207181 11.7575181,138.675639 C11.6688193,138.926952 11.5604096,139.18812 11.4717108,139.434506 L11.383012,139.685819 C11.383012,139.695675 11.3780843,139.70553 11.3731566,139.715386 L11.3583735,139.754807 L10.565012,142.021554 C10.0426747,143.593494 9.55483133,145.185145 9.06698795,146.796506 C8.48059036,148.654253 7.92375904,150.512 7.41127711,152.369747 L6.83966265,154.547795 C6.63762651,155.296807 6.46022892,156.060602 6.29268675,156.81947 L6.16949398,157.33688 L5.99209639,158.016904 L5.73585542,159.135494 L5.43033735,160.283651 L5.00162651,162.205458 C4.76016867,163.25506 4.56798795,164.314518 4.34131325,165.369048 C4.23290361,165.871675 4.11463855,166.374301 4.01115663,166.876928 L3.78940964,167.92653 L3.5430241,169.21759 C3.49374699,169.483687 3.42968675,169.749783 3.38040964,170.01588 L3.01083133,172.144651 C2.80386747,173.322373 2.64618072,174.495169 2.45892771,175.672892 L2.09427711,177.811518 L1.92673494,179.073012 C1.89716867,179.27012 1.85774699,179.472157 1.83310843,179.674193 L1.52266265,182.231675 C1.39946988,183.202434 1.32062651,184.17812 1.21221687,185.153807 C1.11859036,185.996446 0.99539759,186.844012 0.916554217,187.681723 L0.813072289,188.844663 C0.798289157,189.017133 0.773650602,189.184675 0.75886747,189.352217 C0.675096386,190.367325 0.606108434,191.367651 0.532192771,192.436964 C0.497698795,192.974084 0.477987952,193.511205 0.443493976,194.048325 C0.369578313,195.176771 0.266096386,196.32 0.211891566,197.433663 L0.167542169,198.951398 C0.167542169,198.961253 0.162614458,198.966181 0.162614458,198.976036 L0.162614458,199.05488 L0.133048193,200.015783 C0.123192771,200.276952 0.123192771,200.53812 0.11826506,200.804217 C0.113337349,200.838711 0.113337349,200.878133 0.108409639,200.917554 L0.103481928,201.375831 C0.093626506,201.824253 0.0788433735,202.277602 0.0689879518,202.726024 C0.064060241,203.061108 0.0689879518,203.396193 0.064060241,203.736205 C0.0443493976,204.884361 0,206.02759 0,207.175747 C0,208.185928 0.0246385542,209.196108 0.0492771084,210.270349 C0.0542048193,210.654711 0.0788433735,211.044 0.0837710843,211.428361 L0.133048193,213.26147 C0.137975904,213.36988 0.147831325,213.478289 0.152759036,213.586699 C0.182325301,214.665867 0.197108434,215.735181 0.251313253,216.819277 C0.320301205,218.056133 0.404072289,219.307771 0.487843373,220.554482 C0.620891566,222.510783 0.788433735,224.462157 0.965831325,226.379036 C1.05945783,227.266024 1.16293976,228.148084 1.26642169,229.030145 C1.30091566,229.365229 1.32062651,229.695386 1.36004819,230.03047 C1.50295181,231.25747 1.67049398,232.494325 1.83803614,233.731181 C1.88238554,234.061337 1.93659036,234.381639 1.98093976,234.711795 C2.04007229,235.115867 2.08442169,235.524867 2.14355422,235.92894 C2.20268675,236.318229 2.27660241,236.712446 2.33573494,237.101735 C2.45892771,237.904952 2.56240964,238.722952 2.69545783,239.521241 C2.94677108,240.984771 3.20793976,242.438446 3.47896386,243.901976 C3.55780723,244.291265 3.6366506,244.680554 3.71549398,245.069843 C3.73520482,245.183181 3.75491566,245.296518 3.77462651,245.409855 C3.80419277,245.562614 3.84361446,245.710446 3.87318072,245.863205 C4.07521687,246.902952 4.2723253,247.937771 4.49407229,248.97259 C4.84886747,250.628301 5.24308434,252.284012 5.64715663,253.974217 C6.00687952,255.427892 6.35181928,256.871711 6.74603614,258.335241 C7.23387952,260.178205 7.76607229,262.026096 8.31304819,263.86906 L9.16061446,266.623651 C9.22960241,266.845398 9.30844578,267.067145 9.37743373,267.288892 L9.56961446,267.929494 C10.0278916,269.333892 10.5305181,270.777711 11.0676386,272.325012 L11.9102771,274.803651 C12.0531807,275.202795 12.2108675,275.606867 12.3586988,276.001084 C12.6001566,276.676181 12.8366867,277.336494 13.0732169,277.977096 C13.1175663,278.085506 13.1520602,278.193916 13.1914819,278.302325 L13.3196024,278.627554 C13.906,280.179783 14.4825422,281.677807 15.064012,283.09206 L15.694759,284.668928 C16.4339157,286.418265 17.2174217,288.133108 18.1241205,290.168253 C18.2620964,290.468843 18.405,290.764506 18.5429759,291.065096 C18.9913976,292.065422 19.444747,293.036181 19.888241,293.967518 C20.0015783,294.204048 20.1050602,294.445506 20.2183976,294.682036 L20.3711566,294.982627 C20.4056506,295.051614 20.4401446,295.130458 20.4746386,295.199446 L21.2137952,296.722108 C22.0564337,298.417241 22.9483494,300.082807 23.9979518,302.044036 C24.7716024,303.512494 25.5551084,304.976024 26.3681807,306.419843 L27.4276386,308.21353 C27.7035904,308.681663 27.9893976,309.130084 28.2850602,309.583434 C28.5166627,309.943157 28.7581205,310.327518 29.0291446,310.771012 C29.448,311.465819 29.8520723,312.17541 30.2758554,312.865289 C30.9706627,314.013446 31.6851807,315.141892 32.4095542,316.250627 L32.7495663,316.768036 C33.3359639,317.674735 33.9371446,318.596217 34.612241,319.60147 C34.6812289,319.704952 34.7551446,319.803506 34.8241325,319.90206 L35.7209759,321.262108 C36.4256386,322.296928 37.150012,323.321892 37.8645301,324.332072 C38.6135422,325.386602 39.3871928,326.411566 40.150988,327.451313 C40.1904096,327.505518 40.2298313,327.564651 40.269253,327.613928 C40.2938916,327.648422 40.3234578,327.682916 40.3431687,327.712482 C40.7373855,328.244675 41.121747,328.791651 41.5208916,329.313988 C42.1861325,330.196048 42.876012,331.05347 43.7334337,332.157277 C44.5514337,333.187169 45.3842169,334.192422 46.2071446,335.20753 L46.438747,335.498265 C46.4781687,335.547542 46.5175904,335.596819 46.557012,335.641169 C46.9265904,336.094518 47.2863133,336.557723 47.665747,337.006145 C48.4393976,337.907916 49.2229036,338.814614 50.0064096,339.721313 C50.4351205,340.209157 50.8835422,340.692072 51.312253,341.174988 C51.8493735,341.781096 52.3717108,342.401988 52.9186867,343.003169 C53.2192771,343.333325 53.5346506,343.66841 53.8500241,344.013349 C53.9584337,344.126687 54.056988,344.244952 54.1653976,344.363217 L54.7616506,344.993964 C54.9636867,345.210783 55.146012,345.407892 55.367759,345.649349 C55.5451566,345.831675 55.7274819,346.009072 55.8999518,346.191398 L56.6440361,346.969976 C56.9347711,347.275494 57.2353614,347.566229 57.5260964,347.866819 C57.5901566,347.93088 57.6492892,347.99494 57.7133494,348.059 C57.737988,348.088566 57.7675542,348.113205 57.7921928,348.142771 C57.8020482,348.152627 57.8168313,348.162482 57.8266867,348.177265 C58.4574337,348.822795 59.0783253,349.488036 59.7189277,350.123711 C60.0737229,350.483434 60.4433012,350.828373 60.8079518,351.183169 C60.872012,351.242301 60.9262169,351.306361 60.9853494,351.365494 C61.093759,351.468976 61.2070964,351.572458 61.315506,351.67594 C61.6407349,351.991313 61.9610361,352.306687 62.2911928,352.626988 C62.4143855,352.745253 62.5474337,352.863518 62.6804819,352.991639 C63.3210843,353.597747 63.9813976,354.223566 64.7895422,354.972578 C64.8388193,355.016928 64.8880964,355.061277 64.9373735,355.105627 C65.5730482,355.696952 66.1939398,356.30306 66.8345422,356.88453 L69.5398554,359.264614 C70.007988,359.673614 70.4958313,360.067831 70.9639639,360.471904 C71.3631084,360.811916 71.7523976,361.151928 72.1515422,361.487012 C72.3141566,361.624988 72.4767711,361.753108 72.6393855,361.891084 C73.1814337,362.344434 73.7037711,362.807639 74.2556747,363.25606 C74.7829398,363.689699 75.3299157,364.11841 75.8670361,364.54712 C76.2366145,364.837855 76.5914096,365.148301 76.960988,365.439036 L79.8092048,367.636795 C80.2625542,367.976807 80.7208313,368.302036 81.1741807,368.646976 C81.4402771,368.844084 81.6965181,369.051048 81.9576867,369.248157 C82.2582771,369.474831 82.5785783,369.691651 82.8840964,369.90847 C83.5148434,370.376602 84.1357349,370.85459 84.7763373,371.312867 C85.7717349,372.027386 86.7868434,372.732048 87.8118072,373.417 C88.2897952,373.752084 88.787494,374.067458 89.2704096,374.397614 C89.5266506,374.570084 89.758253,374.737627 90.0243494,374.915024 L91.0690241,375.595048 C91.6702048,375.994193 92.2566024,376.403193 92.8577831,376.787554 C93.917241,377.482361 95.0161205,378.147602 96.1100723,378.827627 C96.592988,379.123289 97.1153253,379.418952 97.598241,379.714614 C97.7953494,379.83288 97.9924578,379.965928 98.1895663,380.084193 C98.5591446,380.301012 98.9484337,380.527687 99.3327952,380.754361 C99.9881807,381.138723 100.599217,381.523084 101.279241,381.907446 L104.684289,383.81447 C105.310108,384.15941 105.945783,384.484639 106.581458,384.829578 L106.739145,384.913349 C106.803205,384.952771 106.872193,384.982337 106.936253,385.021759 C107.882373,385.524386 108.818639,386.046723 109.764759,386.534566 C110.912916,387.125892 112.075855,387.687651 113.578807,388.42188 L115.05712,389.121614 C115.579458,389.397566 116.146145,389.693229 116.146145,389.693229 C116.298904,389.762217 116.939506,390.038169 117.624458,390.338759 L118.614928,390.806892 C119.910916,391.388361 121.23647,391.945193 122.557096,392.516807 C123.222337,392.802614 123.882651,393.068711 124.542964,393.339735 C124.597169,393.359446 124.641518,393.384084 124.695723,393.408723 L124.902687,393.492494 C125.395458,393.69453 125.898084,393.906422 126.390855,394.10353 C126.794928,394.271072 128.322518,394.951096 128.322518,394.951096 C128.687169,395.094 131.786699,396.197807 131.786699,396.197807 C132.422373,396.434337 133.077759,396.661012 133.718361,396.892614 C133.821843,396.932036 133.925325,396.976386 134.033735,397.01088 L134.437807,397.153783 C135.319867,397.469157 136.192072,397.799313 137.083988,398.104831 L138.562301,398.568036 C139.764663,398.977036 140.986735,399.317048 142.198952,399.696482 C143.347108,400.061133 144.495265,400.430711 145.653277,400.770723 C145.983434,400.869277 146.308663,400.987542 146.643747,401.081169 L147.215361,401.233928 C147.24,401.243783 147.264639,401.248711 147.289277,401.253639 C148.935133,401.726699 150.600699,402.091349 152.261337,402.52006 C154.779398,403.170518 157.287602,403.820976 159.825373,404.37288 C160.21959,404.456651 160.60888,404.569988 161.003096,404.653759 C162.693301,405.013482 164.398289,405.25494 166.093422,405.570313 C167.92653,405.905398 169.744855,406.329181 171.582892,406.619916 C172.277699,406.723398 172.982361,406.78253 173.672241,406.881084 C174.071386,406.940217 174.47053,407.023988 174.869675,407.073265 C175.825651,407.211241 176.786554,407.280229 177.74253,407.403422 C180.502048,407.738506 183.271422,408.024313 186.050651,408.250988 C186.986916,408.324904 187.923181,408.457952 188.864373,408.522012 C189.002349,408.531867 189.140325,408.556506 189.283229,408.566361 C190.01253,408.610711 190.751687,408.610711 191.480988,408.650133 C192.821325,408.71912 194.161663,408.758542 195.502,408.807819 C197.443518,408.876807 199.380108,408.945795 201.331482,408.955651 C201.730627,408.960578 202.129771,409 202.528916,409 C202.844289,409 203.16459,408.975361 203.479964,408.970434 C203.879108,408.970434 204.278253,408.945795 204.677398,408.940867 C205.549602,408.931012 206.421807,408.896518 207.289084,408.87188 C208.742759,408.837386 210.196434,408.822602 211.655036,408.753614 C212.408976,408.71912 213.167843,408.69941 213.926711,408.65506 C214.069614,408.645205 214.222373,408.650133 214.370205,408.640277 C214.458904,408.635349 214.537747,408.605783 214.626446,408.595928 C215.749964,408.52694 216.873482,408.413602 217.997,408.324904 C219.475313,408.216494 220.953627,408.11794 222.436867,407.970108 C224.319253,407.782855 226.201639,407.53647 228.084024,407.295012 C229.414506,407.122542 230.744988,407.009205 232.080398,406.817024 C232.228229,406.792386 232.361277,406.728325 232.514036,406.703687 C236.727229,406.068012 240.930566,405.348566 245.11912,404.451723 C258.611193,401.500024 267.219904,388.091723 264.317482,374.540518 C261.838843,362.999819 251.466012,354.617783 239.644434,354.617783 C237.880313,354.617783 236.116193,354.809964 234.391494,355.164759 C230.385265,356.027108 226.339614,356.677566 222.284108,357.209759 C220.593904,357.436434 218.898771,357.663108 217.198711,357.825723 C216.29694,357.919349 215.395169,357.973554 214.493398,358.04747 C213.103783,358.160807 211.709241,358.254434 210.314699,358.328349 C208.471735,358.421976 206.628771,358.476181 204.785807,358.505747 C203.997373,358.52053 203.20894,358.540241 202.420506,358.540241 C200.572614,358.540241 198.729651,358.490964 196.881759,358.421976 C196.512181,358.407193 196.142602,358.407193 195.773024,358.39241 C195.324602,358.372699 194.876181,358.362843 194.427759,358.338205 C192.698133,358.244578 190.978361,358.101675 189.253663,357.953843 C187.942892,357.840506 186.63212,357.717313 185.316422,357.57441 C183.754337,357.392084 182.192253,357.194976 180.635096,356.973229 C179.78753,356.850036 178.949819,356.702205 178.107181,356.564229 L178.107181,356.559301 C175.056928,356.071458 171.937687,355.465349 168.759313,354.745904 C168.759313,354.745904 168.567133,354.706482 168.276398,354.632566 C165.526735,353.991964 162.727795,353.238024 159.889434,352.420024 C158.701855,352.065229 157.519205,351.710434 156.326699,351.340855 C156.031036,351.242301 155.779723,351.163458 155.538265,351.084614 L155.474205,351.064904 L155.474205,351.055048 C153.581964,350.444012 151.640446,349.695 149.708783,348.980482 C148.373373,348.492639 147.023181,348.029434 145.702554,347.502169 C145.426602,347.383904 145.135867,347.270566 144.790928,347.122735 C142.627663,346.240675 140.503819,345.26006 138.384904,344.274518 C136.90659,343.589566 135.423349,342.909542 133.969675,342.175313 L132.993988,341.68747 C130.663181,340.485108 128.396434,339.184193 126.129687,337.873422 C124.646446,337.016 123.163205,336.158578 121.714458,335.25188 C121.320241,335.000566 120.921096,334.759108 120.52688,334.502867 C118.703627,333.335 116.929651,332.088289 115.155675,330.841578 C113.52953,329.703277 111.913241,328.550193 110.336373,327.347831 C109.996361,327.086663 109.656349,326.835349 109.321265,326.579108 L108.917193,326.25388 C108.345578,325.805458 107.808458,325.332398 107.246699,324.879048 C106.492759,324.277867 105.763458,323.652048 105.019373,323.036084 C102.752627,321.12906 100.510518,319.19247 98.3571084,317.157325 C96.933,315.81206 95.5778795,314.387952 94.2030482,312.983554 C92.5473373,311.298277 90.8817711,309.622855 89.314759,307.873518 C89.314759,307.86859 89.314759,307.86859 89.3098313,307.86859 C83.8400723,301.73359 78.8088795,295.16988 74.4281446,288.295723 C74.2950964,288.088759 74.1620482,287.891651 74.0388554,287.689614 L73.5263735,286.876542 C72.4077831,285.102566 71.3581807,283.289169 70.3332169,281.480699 L69.9537831,280.800675 C69.7369639,280.426169 69.5004337,280.007313 69.2343373,279.534253 C69.086506,279.258301 68.9238916,278.977422 68.780988,278.711325 C68.1058916,277.449831 67.4702169,276.173554 66.6817831,274.601614 L65.5730482,272.394 L64.4150361,269.915361 C63.7596506,268.486325 63.1190482,267.047434 62.5572892,265.716952 L62.0103133,264.465313 C62.0103133,264.465313 60.5960602,260.83359 60.1673494,259.690361 L58.861506,256.09806 C58.7777349,255.851675 58.6988916,255.605289 58.6151205,255.358904 C58.2110482,254.171325 57.8168313,252.978819 57.4373976,251.77153 C57.3634819,251.539928 57.2846386,251.308325 57.2156506,251.076723 L57.0924578,250.672651 C56.6883855,249.342169 56.3138795,248.011687 55.9492289,246.676277 C55.7028434,245.784361 55.4613855,244.887518 55.2347108,243.990675 C55.027747,243.192386 54.8503494,242.389169 54.6630964,241.581024 C54.2787349,239.95488 53.9091566,238.323807 53.5839277,236.692735 C53.4607349,236.10141 53.357253,235.505157 53.2439157,234.908904 C52.8989759,233.085651 52.5688193,231.25747 52.2928675,229.429289 C52.2485181,229.143482 52.2090964,228.847819 52.164747,228.557084 C51.5142892,224.112289 51.0510843,219.667494 50.8096265,215.252265 C50.5435301,210.679349 50.4843976,205.96353 50.647012,201.218145 C50.681506,200.316373 50.7209277,199.414602 50.7702048,198.517759 L50.7702048,198.463554 C50.8391928,197.128145 50.9229639,195.792735 51.0215181,194.452398 C51.1003614,193.402795 51.2136988,192.318699 51.3171807,191.249386 C51.4453012,189.997747 51.5734217,188.746108 51.7311084,187.504325 C52.3618554,182.606181 53.2291325,177.673542 54.3181566,172.859169 C54.7961446,170.72547 55.3529759,168.576988 55.9492289,166.364446 C56.0625663,165.940663 56.1660482,165.521807 56.289241,165.088169 C56.5799759,164.092771 56.8805663,163.097373 57.191012,162.106904 L58.3835181,158.332277 L58.8417952,156.987012 C59.5119639,155.070133 60.2166265,153.153253 61.009988,151.118108 L62.6213494,147.136518 L62.8923735,146.520554 C64.2622771,143.342181 65.7455181,140.218012 67.3174578,137.148048 C68.371988,135.103048 69.5201446,133.122108 70.6584458,131.131313 C71.6193494,129.450964 72.5556145,127.750904 73.5707229,126.119831 C77.931747,119.137265 82.8298916,112.524277 88.1468916,106.438554 C88.8860482,105.590988 89.6695542,104.777916 90.4333494,103.945133 C92.2861687,101.919843 94.1439157,99.8945542 96.1248554,97.9579639 C96.1297831,97.9481084 96.1347108,97.9431807 96.1445663,97.938253 C98.6576988,95.4743976 101.274313,93.0943133 103.95006,90.7930723 C104.551241,90.2855181 105.172133,89.7779639 105.788096,89.2704096 C106.108398,89.0141687 106.423771,88.7480723 106.744072,88.496759 C107.409313,87.9547108 108.079482,87.4126627 108.749651,86.8903253 C109.587361,86.2398675 110.459566,85.5844819 111.326843,84.9340241 C112.406012,84.1258795 113.485181,83.3226627 114.569277,82.549012 C115.692795,81.7556506 116.771964,81.0362048 117.860988,80.3019759 C118.13694,80.1147229 118.412892,79.9323976 118.688843,79.7500723 C119.526554,79.1981687 120.329771,78.6413373 121.201976,78.0943614 C121.591265,77.8430482 121.980554,77.6114458 122.369843,77.3650602 C123.118855,76.9018554 123.897434,76.448506 124.661229,75.9902289 C125.602422,75.4284699 126.538687,74.8667108 127.460169,74.3394458 C128.968048,73.4869518 130.53506,72.649241 132.131639,71.8164578 C133.57053,71.0674458 135.024205,70.348 136.482807,69.6482651 C137.70488,69.0569398 138.926952,68.455759 140.11453,67.9137108 C140.686145,67.6574699 141.262687,67.4406506 141.834301,67.1942651 C144.258735,66.1397349 146.693024,65.0901325 149.171663,64.1637229 C150.147349,63.7990723 151.147675,63.5083373 152.128289,63.1633976 C153.542542,62.6656988 154.966651,62.202494 156.395687,61.7442169 C157.617759,61.3598554 158.829976,60.9311446 160.056976,60.5763494 C161.101651,60.275759 162.161108,60.0343012 163.210711,59.7534217 C164.201181,59.4873253 165.191651,59.2409398 166.187048,58.9945542 C167.680145,58.6299036 169.163386,58.230759 170.666337,57.9055301 C172.243205,57.5704458 173.844711,57.3043494 175.441289,57.0136145 C177.501072,56.6391084 179.565783,56.254747 181.645277,55.964012 C182.616036,55.8309639 183.596651,55.7324096 184.572337,55.6190723 C187.484614,55.2692048 190.401819,54.9439759 193.338735,54.7616506 C196.275651,54.584253 199.24706,54.5054096 202.223398,54.4955542 C202.440217,54.4955542 202.652108,54.4807711 202.864,54.4807711 C205.805843,54.4906265 208.742759,54.6138193 211.655036,54.7862892 C212.354771,54.8306386 213.049578,54.874988 213.749313,54.9291928 C216.198386,55.1115181 218.637602,55.3628313 221.052181,55.6634217 C222.614265,55.8556024 224.186205,56.0083614 225.728578,56.2498193 C229.192759,56.7869398 232.671723,57.4423253 236.052133,58.2159759 C236.623747,58.3440964 237.195361,58.452506 237.75712,58.5362771 C243.793566,59.4626867 249.958133,58.1913373 255.127301,54.9291928 C260.83359,51.3319639 264.770831,45.7488675 266.263928,39.1999398 C267.752096,32.6115904 266.584229,25.835988 262.987,20.1494096 C259.389771,14.467759 253.796819,10.5108072 247.223253,9.03742169" id="Fill-15" fill="#F4C325" mask="url(#mask-2)"></path>
            </g>
        </g>
    </g>
</svg>